<svg xmlns="http://www.w3.org/2000/svg" width="28.33" height="23.01" viewBox="0 0 28.33 23.01"><path d="M27.419,9.754c.019.252.019.5.019.754,0,7.676-5.843,16.522-16.52,16.522A16.406,16.406,0,0,1,2,24.421a12.134,12.134,0,0,0,1.4.072,11.632,11.632,0,0,0,7.209-2.481,5.818,5.818,0,0,1-5.43-4.026,7.394,7.394,0,0,0,1.1.089,6.178,6.178,0,0,0,1.529-.2,5.8,5.8,0,0,1-4.656-5.7v-.072a5.859,5.859,0,0,0,2.624.737,5.815,5.815,0,0,1-1.8-7.764A16.516,16.516,0,0,0,15.95,11.156a6.6,6.6,0,0,1-.144-1.331A5.812,5.812,0,0,1,25.855,5.853a11.471,11.471,0,0,0,3.685-1.4,5.8,5.8,0,0,1-2.553,3.2,11.638,11.638,0,0,0,3.343-.9A12.462,12.462,0,0,1,27.419,9.754Z" transform="translate(-2 -4.019)" fill="#fff" opacity="0.7"/></svg>