<svg xmlns="http://www.w3.org/2000/svg" width="25.96" height="26" viewBox="0 0 25.96 26"><g opacity="0.7"><path d="M14.04,7.377A6.665,6.665,0,1,0,20.7,14.041,6.664,6.664,0,0,0,14.04,7.377Zm0,10.995a4.329,4.329,0,1,1,4.328-4.329,4.33,4.33,0,0,1-4.328,4.329Z" transform="translate(-1.071 -1.074)" fill="#fff"/><ellipse cx="1.554" cy="1.554" rx="1.554" ry="1.554" transform="translate(18.345 4.503)" fill="#fff"/><path d="M28.274,7.482a6.639,6.639,0,0,0-3.8-3.794,9.524,9.524,0,0,0-3.151-.605c-1.388-.061-1.828-.078-5.348-.078s-3.972,0-5.348.078a9.448,9.448,0,0,0-3.148.605,6.631,6.631,0,0,0-3.8,3.794,9.492,9.492,0,0,0-.6,3.151C3.021,12.021,3,12.46,3,15.982s0,3.969.081,5.348a9.508,9.508,0,0,0,.6,3.153,6.645,6.645,0,0,0,3.8,3.794,9.491,9.491,0,0,0,3.15.649c1.388.061,1.828.079,5.348.079s3.972,0,5.348-.079a9.536,9.536,0,0,0,3.151-.6,6.649,6.649,0,0,0,3.8-3.8,9.493,9.493,0,0,0,.6-3.151c.062-1.387.081-1.826.081-5.348s0-3.969-.081-5.348A9.487,9.487,0,0,0,28.274,7.482ZM26.518,21.223a7.27,7.27,0,0,1-.448,2.433A4.306,4.306,0,0,1,23.6,26.123a7.187,7.187,0,0,1-2.407.448c-1.369.063-1.756.079-5.267.079s-3.873,0-5.269-.079a7.149,7.149,0,0,1-2.406-.448,4.3,4.3,0,0,1-2.478-2.467,7.324,7.324,0,0,1-.448-2.406c-.062-1.369-.076-1.756-.076-5.267s0-3.872.076-5.269a7.262,7.262,0,0,1,.448-2.432A4.3,4.3,0,0,1,8.252,5.815a7.221,7.221,0,0,1,2.406-.448c1.371-.062,1.756-.079,5.269-.079s3.873,0,5.267.079a7.151,7.151,0,0,1,2.407.448A4.312,4.312,0,0,1,26.07,8.283a7.325,7.325,0,0,1,.448,2.406c.062,1.371.078,1.756.078,5.269s0,3.889-.062,5.267h-.016Z" transform="translate(-3.002 -3.005)" fill="#fff"/></g></svg>